#!OML:ASF G:\JayActor3\Patient Classification 1\Patient 1\Session 6\male.ASF
:FULLY-SPECIFIED
:DEGREES
565
root 12.0524 16.3325 -3.80924 -5.92675 -39.5944 -1.52354
lowerback 4.36034 -0.00552965 -0.511905
upperback 4.72681 -0.0389463 -2.13261
thorax 2.4166 -0.0209686 -1.90677
lowerneck 1.56246 -3.28162 0.852201
upperneck 21.0142 -4.00894 -4.69664
head 5.97448 -2.32726 -1.8286
rclavicle -3.78685e-014 0
rhumerus -4.13942 8.01338 -59.5106
rradius 79.3885
rwrist -9.85845
rhand -29.1507 -6.58489
rfingers 7.12502
rthumb -2.49726 -36.55
lclavicle -3.78685e-014 0
lhumerus 8.67596 -11.695 70.4989
lradius 122.04
lwrist 19.6087
lhand -30.9905 1.84851
lfingers 7.12502
lthumb -4.27394 31.7854
rfemur -18.0978 10.5384 14.1498
rtibia 34.8795
rfoot -10.1563 -10.7869
rtoes 1.89166
lfemur -0.497279 4.43779 -16.6631
ltibia 33.7196
lfoot -14.3863 -2.71664
ltoes -16.3163
566
root 11.9474 16.3456 -3.81011 -5.53622 -38.8108 -1.76117
lowerback 4.30344 -0.0729024 -0.364014
upperback 4.6874 -0.123336 -2.10524
thorax 2.4048 -0.058564 -1.9596
lowerneck 1.61993 -3.37019 0.820974
upperneck 21.0225 -4.14133 -4.59912
head 5.96712 -2.38498 -1.79681
rclavicle -1.37161e-014 -7.95139e-015
rhumerus -4.37561 7.93376 -59.4108
rradius 79.5396
rwrist -9.83607
rhand -29.1225 -6.58877
rfingers 7.12502
rthumb -2.47 -36.5542
lclavicle -1.37161e-014 -7.95139e-015
lhumerus 8.63302 -11.8374 70.3732
lradius 122.006
lwrist 19.7677
lhand -30.9168 1.9202
lfingers 7.12502
lthumb -4.20277 31.8585
rfemur -17.6377 10.0185 14.5545
rtibia 34.4782
rfoot -10.7818 -10.8111
rtoes 2.31058
lfemur -1.2033 4.32308 -16.2541
ltibia 34.6653
lfoot -14.2031 -2.5658
ltoes -16.6825
567
root 11.8455 16.3596 -3.81185 -5.12865 -38.0322 -2.01861
lowerback 4.26169 -0.139054 -0.172537
upperback 4.6435 -0.20557 -2.0741
thorax 2.37956 -0.0939963 -2.03306
lowerneck 1.68159 -3.46063 0.792472
upperneck 21.0194 -4.27483 -4.51029
head 5.95525 -2.44342 -1.76786
rclavicle 5.91384e-014 -3.18055e-015
rhumerus -4.59717 7.85677 -59.2871
rradius 79.6919
rwrist -9.81442
rhand -29.0906 -6.59989
rfingers 7.12502
rthumb -2.4392 -36.5657
lclavicle 5.91384e-014 -3.18055e-015
lhumerus 8.6122 -11.9767 70.2363
lradius 121.955
lwrist 19.9281
lhand -30.8328 1.99821
lfingers 7.12502
lthumb -4.12165 31.9381
rfemur -17.2069 9.46157 14.9804
rtibia 34.057
rfoot -11.3357 -10.8459
rtoes 2.68482
lfemur -1.97662 4.22796 -15.8474
ltibia 35.67
lfoot -13.99 -2.31961
ltoes -16.9889
568
root 11.7467 16.3744 -3.81465 -4.7143 -37.2614 -2.2892
lowerback 4.23696 -0.198667 0.0526208
upperback 4.60031 -0.27876 -2.03578
thorax 2.34541 -0.124226 -2.11822
lowerneck 1.74344 -3.5569 0.760754
upperneck 21.006 -4.41461 -4.42903
head 5.93998 -2.50547 -1.74072
rclavicle -4.76089e-014 1.66979e-014
rhumerus -4.8043 7.77045 -59.1307
rradius 79.8458
rwrist -9.79773
rhand -29.0579 -6.61591
rfingers 7.12502
rthumb -2.40762 -36.5821
lclavicle -4.76089e-014 1.66979e-014
lhumerus 8.61982 -12.1214 70.1056
lradius 121.884
lwrist 20.0817
lhand -30.7407 2.08315
lfingers 7.12502
lthumb -4.03273 32.0247
rfemur -16.8154 8.88515 15.422
rtibia 33.6399
rfoot -11.809 -10.8965
rtoes 3.01614
lfemur -2.80777 4.15081 -15.4499
ltibia 36.7274
lfoot -13.7408 -1.97567
ltoes -17.1667
569
root 11.651 16.3899 -3.81865 -4.30215 -36.5029 -2.5683
lowerback 4.22953 -0.247696 0.298924
upperback 4.56391 -0.337735 -1.98472
thorax 2.30878 -0.147124 -2.20242
lowerneck 1.79945 -3.66108 0.719097
upperneck 20.9843 -4.5631 -4.35532
head 5.92304 -2.57279 -1.71455
rclavicle 4.96962e-014 1.51076e-014
rhumerus -4.99192 7.6675 -58.9326
rradius 79.999
rwrist -9.78814
rhand -29.0292 -6.63531
rfingers 7.12502
rthumb -2.37989 -36.6018
lclavicle 4.96962e-014 1.51076e-014
lhumerus 8.65757 -12.275 69.9956
lradius 121.794
lwrist 20.2173
lhand -30.6506 2.17247
lfingers 7.12502
lthumb -3.94573 32.1157
rfemur -16.4701 8.3064 15.8761
rtibia 33.2481
rfoot -12.2023 -10.9641
rtoes 3.30716
lfemur -3.68573 4.09267 -15.0663
ltibia 37.8308
lfoot -13.4526 -1.53242
ltoes -17.1499
570
root 11.5582 16.4056 -3.82396 -3.89875 -35.7626 -2.85295
lowerback 4.2393 -0.283738 0.55434
upperback 4.53882 -0.379503 -1.91583
thorax 2.27477 -0.161578 -2.27373
lowerneck 1.84404 -3.77334 0.662818
upperneck 20.9571 -4.72015 -4.28996
head 5.90647 -2.64576 -1.68902
rclavicle 4.40308e-014 4.77083e-015
rhumerus -5.15304 7.5457 -58.6867
rradius 80.1474
rwrist -9.78569
rhand -29.0104 -6.65578
rfingers 7.12502
rthumb -2.36179 -36.6225
lclavicle 4.40308e-014 4.77083e-015
lhumerus 8.72205 -12.4372 69.9144
lradius 121.684
lwrist 20.323
lhand -30.5738 2.25939
lfingers 7.12502
lthumb -3.87159 32.204
rfemur -16.1735 7.74102 16.3413
rtibia 32.8964
rfoot -12.5232 -11.0493
rtoes 3.55664
lfemur -4.59902 4.05791 -14.6995
ltibia 38.9723
lfoot -13.127 -0.984811
ltoes -16.9026
571
root 11.4681 16.4214 -3.83065 -3.50894 -35.0466 -3.14179
lowerback 4.26828 -0.306263 0.810976
upperback 4.52686 -0.403471 -1.82727
thorax 2.24437 -0.1675 -2.32581
lowerneck 1.87497 -3.89228 0.592568
upperneck 20.9264 -4.88368 -4.23427
head 5.89126 -2.72344 -1.66468
rclavicle -2.47487e-014 1.35174e-014
rhumerus -5.28226 7.40717 -58.394
rradius 80.2854
rwrist -9.78793
rhand -29.0088 -6.67699
rfingers 7.12502
rthumb -2.36024 -36.6437
lclavicle -2.47487e-014 1.35174e-014
lhumerus 8.80577 -12.6054 69.8605
lradius 121.559
lwrist 20.3906
lhand -30.5208 2.33503
lfingers 7.12502
lthumb -3.82035 32.2805
rfemur -15.9222 7.20321 16.8178
rtibia 32.5899
rfoot -12.785 -11.1544
rtoes 3.7612
lfemur -5.5345 4.05287 -14.3508
ltibia 40.141
lfoot -12.7708 -0.324286
ltoes -16.4197
